<svg width="100" height="32" viewBox="0 0 100 32" fill="none" xmlns="http://www.w3.org/2000/svg">
<g clip-path="url(#clip0_1_6)">
<path d="M98.8419 11.52C99.2909 12.0267 100 11.5733 100 11.04V1.86667C100 1.33333 99.6218 0.906667 99.1491 0.906667H91.0187C90.546 0.906667 90.1205 1.68 90.5696 2.18667L98.8419 11.52Z" fill="#EE3524"/>
<path d="M0 1.73333C0 1.33333 0.283618 1.01333 0.661779 1.01333H4.25431C4.60884 1.01333 4.91609 1.33333 4.91609 1.73333V10.64C4.91609 11.04 5.05791 11.0933 5.24699 10.7467L10.0449 1.65333C10.234 1.30667 10.6594 1.01333 11.0376 1.01333H14.6774C15.0319 1.01333 15.1737 1.28 14.961 1.62667L10.0922 9.52C9.87946 9.84 9.83219 10.4267 9.974 10.8L15.5282 25.12C15.6701 25.4933 15.481 25.7867 15.1264 25.7867H11.3685C11.0139 25.7867 10.6121 25.4933 10.4703 25.12L6.99598 15.04C6.87781 14.6667 6.59419 14.64 6.38147 14.96L5.27062 16.7467C5.0579 17.0667 4.89246 17.68 4.89246 18.08V25.04C4.89246 25.44 4.5852 25.76 4.23068 25.76H0.661779C0.307253 25.76 0 25.44 0 25.04V1.73333ZM16.4264 1.73333C16.4264 1.33333 16.7336 1.01333 17.0882 1.01333H20.3734C20.728 1.01333 21.0352 1.33333 21.0352 1.73333V25.04C21.0352 25.44 20.728 25.76 20.3734 25.76H17.0882C16.7336 25.76 16.4264 25.44 16.4264 25.04V1.73333ZM27.6058 5.2C27.6058 5.6 27.2985 5.92 26.944 5.92H23.6114C23.2569 5.92 22.9497 5.6 22.9497 5.2V1.6C22.9497 1.2 23.2569 0.88 23.6114 0.88H26.944C27.2985 0.88 27.6058 1.2 27.6058 1.6V5.2ZM22.9733 8.18667C22.9733 7.78667 23.2805 7.46667 23.6351 7.46667H26.9203C27.2749 7.46667 27.5821 7.78667 27.5821 8.18667V25.0667C27.5821 25.4667 27.2985 25.7867 26.9203 25.7867H23.6351C23.2805 25.7867 22.9733 25.4667 22.9733 25.0667V8.18667ZM29.5438 8.18667C29.5438 7.78667 29.8511 7.46667 30.2056 7.46667H33.16C33.5145 7.46667 33.8218 7.78667 33.8218 8.18667V9.46667C33.8218 9.86667 34.129 9.92 34.2236 9.62667C34.5781 8.69333 35.8071 7.22667 37.5561 7.22667C39.0688 7.22667 40.3214 7.97333 41.3141 9.46667C42.3068 10.96 42.8268 13.2533 42.8268 16.32C42.8268 19.5467 42.3304 21.9733 41.3614 23.6C40.3923 25.2267 38.9979 26.0533 37.2252 26.0533C35.9489 26.0533 34.909 25.52 34.0818 24.4267V31.28C34.0818 31.68 33.7745 32 33.42 32H30.2056C29.8511 32 29.5438 31.68 29.5438 31.28V8.18667ZM34.0818 17.52C34.0818 17.92 34.1054 18.5867 34.1054 18.9867C34.1054 18.9867 34.2 21.1467 34.4599 21.68C34.7199 22.2133 35.2399 22.4533 36.0199 22.4533C36.7053 22.4533 37.2252 22.1067 37.5798 21.4133C37.9107 20.72 38.0761 19.0133 38.0761 16.32C38.0761 14.08 37.9343 12.56 37.627 11.76C37.3434 10.96 36.8471 10.56 36.138 10.56C35.5708 10.56 35.0744 10.8 34.6727 11.3067C34.2709 11.8133 34.0581 12.96 34.0581 14.8L34.0818 17.52ZM49.5864 7.44V25.04C49.5864 25.44 49.2791 25.76 48.9246 25.76H45.8284C45.4739 25.76 45.1666 25.44 45.1666 25.04C45.1666 25.04 45.1903 7.12 45.1903 6.72C45.1903 6.72 45.2848 4.29333 45.5448 3.38667C45.7811 2.48 46.3011 1.70667 47.1047 1.01333C47.9083 0.346666 48.9955 0 50.3663 0C50.9572 0 51.5481 0.0533329 52.1153 0.16C52.4699 0.213333 52.7062 0.48 52.7062 0.853334V3.46667C52.7062 3.86667 52.4226 4.16 52.0444 4.13333H51.6663C50.7918 4.13333 50.2245 4.34667 49.9645 4.74667C49.7046 5.17333 49.5864 6.08 49.5864 7.44ZM65.8237 16.5867C65.8237 22.96 63.602 26.1333 59.135 26.1333C54.6679 26.1333 52.4226 22.96 52.4226 16.5867C52.4226 10.24 54.6679 7.06667 59.135 7.06667C63.602 7.06667 65.8237 10.24 65.8237 16.5867ZM61.073 16.6133C61.073 14.2667 60.9312 12.6933 60.6476 11.8667C60.364 11.04 59.844 10.64 59.135 10.64C58.4495 10.64 57.9296 11.04 57.6459 11.8133C57.3387 12.5867 57.1969 14.1867 57.1969 16.6133C57.1969 18.8533 57.3151 20.4 57.5987 21.28C57.8587 22.16 58.3786 22.5867 59.1586 22.5867C59.9149 22.5867 60.4112 22.16 60.6949 21.28C60.9312 20.4267 61.073 18.8533 61.073 16.6133ZM67.36 1.73333C67.36 1.33333 67.6436 1.01333 68.0217 1.01333H71.307C71.6615 1.01333 71.9688 1.33333 71.9688 1.73333V25.04C71.9688 25.44 71.6852 25.76 71.307 25.76H68.0217C67.6672 25.76 67.36 25.44 67.36 25.04V1.73333ZM78.563 5.2C78.563 5.6 78.2557 5.92 77.9012 5.92H74.545C74.1905 5.92 73.8832 5.6 73.8832 5.2V1.6C73.8832 1.2 74.1669 0.88 74.545 0.88H77.8776C78.2321 0.88 78.5393 1.2 78.5393 1.6L78.563 5.2ZM73.9305 8.18667C73.9305 7.78667 74.2141 7.46667 74.5923 7.46667H77.8776C78.2321 7.46667 78.5393 7.78667 78.5393 8.18667V25.0667C78.5393 25.4667 78.2321 25.7867 77.8776 25.7867H74.5923C74.2378 25.7867 73.9305 25.4667 73.9305 25.0667V8.18667ZM93.4767 16.5867C93.4767 22.96 91.255 26.1333 86.788 26.1333C82.321 26.1333 80.0756 22.96 80.0756 16.5867C80.0756 10.24 82.321 7.06667 86.788 7.06667C91.2314 7.06667 93.4767 10.24 93.4767 16.5867ZM88.7261 16.6133C88.7261 14.2667 88.5843 12.6933 88.3006 11.8667C88.017 11.04 87.5207 10.64 86.788 10.64C86.1026 10.64 85.5826 11.04 85.2753 11.8133C84.9681 12.5867 84.8263 14.1867 84.8263 16.6133C84.8263 18.8533 84.9445 20.4 85.2281 21.28C85.4881 22.16 86.008 22.5867 86.788 22.5867C87.5443 22.5867 88.0406 22.16 88.3243 21.28C88.5843 20.4267 88.7261 18.8533 88.7261 16.6133Z" fill="black"/>
<path d="M52.4698 10.7467C52.4698 11.1467 52.1626 11.4667 51.8081 11.4667H43.9376C43.5831 11.4667 43.2758 11.1467 43.2758 10.7467V8.18667C43.2758 7.78667 43.5831 7.46667 43.9376 7.46667H51.8081C52.1626 7.46667 52.4698 7.78667 52.4698 8.18667V10.7467Z" fill="black"/>
</g>
<defs>
<clipPath id="clip0_1_6">
<rect width="100" height="32" fill="white"/>
</clipPath>
</defs>
</svg>
